<?xml version="1.0" standalone="no"?>
<!DOCTYPE svg PUBLIC "-//W3C//DTD SVG 20010904//EN"
 "http://www.w3.org/TR/2001/REC-SVG-20010904/DTD/svg10.dtd">
<svg version="1.0" xmlns="http://www.w3.org/2000/svg"
 width="512.000000pt" height="512.000000pt" viewBox="0 0 512.000000 512.000000"
 preserveAspectRatio="xMidYMid meet">

<g transform="translate(0.000000,512.000000) scale(0.100000,-0.100000)"
fill="#000000" stroke="none">
<path d="M1954 3802 l-601 -1107 -506 -3 -507 -2 0 -195 0 -195 395 0 c217 0
395 -4 395 -8 0 -5 -254 -476 -564 -1048 l-564 -1039 1279 -3 c703 -1 1855 -1
2558 0 l1279 3 -564 1039 c-310 572 -564 1043 -564 1048 0 4 178 8 395 8 l395
0 0 195 0 195 -507 2 -506 3 -601 1107 c-331 610 -603 1108 -606 1108 -3 0
-275 -498 -606 -1108z m984 -417 c205 -377 372 -687 372 -690 0 -3 -337 -5
-750 -5 -412 0 -750 2 -750 5 0 11 744 1375 750 1375 4 0 174 -308 378 -685z
m1049 -1932 l460 -848 -944 -3 c-518 -1 -1368 -1 -1886 0 l-944 3 460 848 460
847 967 0 967 0 460 -847z"/>
</g>
</svg>
