<?xml version="1.0" standalone="no"?>
<!DOCTYPE svg PUBLIC "-//W3C//DTD SVG 20010904//EN"
 "http://www.w3.org/TR/2001/REC-SVG-20010904/DTD/svg10.dtd">
<svg version="1.0" xmlns="http://www.w3.org/2000/svg"
 width="512.000000pt" height="512.000000pt" viewBox="0 0 512.000000 512.000000"
 preserveAspectRatio="xMidYMid meet">

<g transform="translate(0.000000,512.000000) scale(0.100000,-0.100000)"
fill="#000000" stroke="none">
<path d="M29 4868 c59 -105 1101 -2031 1101 -2034 0 -2 -178 -4 -395 -4 l-395
0 0 -200 0 -200 507 -2 506 -3 600 -1107 c330 -610 603 -1108 607 -1108 4 0
277 498 607 1108 l600 1107 506 3 507 2 0 200 0 200 -395 0 c-217 0 -395 2
-395 4 0 3 1042 1929 1101 2034 l29 52 -2560 0 -2560 0 29 -52z m3962 -1193
l-456 -844 -975 0 -975 0 -456 844 -457 845 1888 0 1888 0 -457 -845z m-683
-1255 c-8 -23 -743 -1379 -748 -1379 -5 0 -740 1356 -748 1379 -2 6 270 10
748 10 478 0 750 -4 748 -10z"/>
</g>
</svg>
