<?xml version="1.0" standalone="no"?>
<!DOCTYPE svg PUBLIC "-//W3C//DTD SVG 20010904//EN"
 "http://www.w3.org/TR/2001/REC-SVG-20010904/DTD/svg10.dtd">
<svg version="1.0" xmlns="http://www.w3.org/2000/svg"
 width="512.000000pt" height="512.000000pt" viewBox="0 0 512.000000 512.000000"
 preserveAspectRatio="xMidYMid meet">

<g transform="translate(0.000000,512.000000) scale(0.100000,-0.100000)"
fill="#000000" stroke="none">
<path d="M12 4898 c8 -13 583 -1073 1278 -2355 695 -1283 1266 -2333 1270
-2333 4 0 575 1050 1270 2332 695 1283 1270 2343 1278 2356 l14 22 -2562 0
-2562 0 14 -22z m3495 -2118 c-518 -956 -944 -1739 -947 -1739 -3 0 -429 783
-947 1739 l-941 1740 1888 0 1888 0 -941 -1740z"/>
</g>
</svg>
