<svg xmlns="http://www.w3.org/2000/svg" version="1.1" xmlns:xlink="http://www.w3.org/1999/xlink" width="512" height="512" x="0" y="0" viewBox="0 0 340 340" style="enable-background:new 0 0 512 512" xml:space="preserve" class=""><g><linearGradient id="a" x1="170.012" x2="170.012" y1="64.069" y2="267.064" gradientUnits="userSpaceOnUse"><stop offset="0" stop-color="#ffdeac"></stop><stop offset=".434" stop-color="#ffa761"></stop><stop offset=".996" stop-color="#ff7f6f"></stop></linearGradient><linearGradient id="b" x1="169.964" x2="169.964" y1="49.161" y2="409.319" gradientUnits="userSpaceOnUse"><stop offset="0" stop-color="#fff09a"></stop><stop offset=".481" stop-color="#ffb94f"></stop><stop offset="1" stop-color="#ff794d"></stop></linearGradient><linearGradient xlink:href="#a" id="c" x1="169.964" x2="169.964" y1="64.069" y2="267.064"></linearGradient><linearGradient xlink:href="#a" id="d" x1="277.649" x2="277.649" y1="64.069" y2="267.064"></linearGradient><linearGradient xlink:href="#b" id="e" x1="277.601" x2="277.601" y1="49.161" y2="409.319"></linearGradient><linearGradient xlink:href="#a" id="f" x1="277.601" x2="277.601" y1="64.069" y2="267.064"></linearGradient><linearGradient xlink:href="#a" id="g" x1="62.346" x2="62.346" y1="64.069" y2="267.064"></linearGradient><linearGradient xlink:href="#b" id="h" x1="62.298" x2="62.298" y1="49.161" y2="409.319"></linearGradient><linearGradient xlink:href="#a" id="i" x1="62.298" x2="62.298" y1="64.069" y2="267.064"></linearGradient><path fill="url(#a)" d="M204.843 240.836a14.334 14.334 0 0 1-4.98-8.988l-.976-6.958h-57.751l-.976 6.958a14.334 14.334 0 0 1-4.98 8.988 10.5 10.5 0 0 0 2.217 17.513c14.271 6.816 31.632 6.052 32.615 6 .983.049 18.343.813 32.614-6a10.5 10.5 0 0 0 2.217-17.513z" opacity="1" data-original="url(#a)"></path><path fill="url(#b)" d="M207.594 121.774v93.869a13.74 13.74 0 0 1-8.979 12.935 81.446 81.446 0 0 1-57.3 0 13.739 13.739 0 0 1-8.979-12.935v-95.7z" opacity="1" data-original="url(#b)" class=""></path><path fill="url(#b)" d="M174.369 75.44c-8.96-1.751-18.848 3.991-18.848 3.991a46.99 46.99 0 0 0-23.187 40.515 3.716 3.716 0 0 0 1.518 3.008c5.54 4.055 16.688 9.632 36.112 9.632 21.4 0 32.751-6.768 37.63-10.812-5.562-25.881-17.636-39.434-33.225-46.334z" opacity="1" data-original="url(#b)" class=""></path><path fill="url(#a)" d="M198.615 228.578a13.74 13.74 0 0 0 8.979-12.935v-95.7c0-33.557-28.978-44.493-33.227-44.493 6.992 4.286 15.5 12.27 15.5 25.757V187.9a27.163 27.163 0 0 1-17.167 25.3c-9.177 3.608-22.374 5.616-40.361 1.533v.906a13.739 13.739 0 0 0 8.979 12.935 81.446 81.446 0 0 0 57.297.004z" opacity="1" data-original="url(#a)"></path><path fill="url(#a)" d="M312.48 240.836a14.333 14.333 0 0 1-4.979-8.988l-.976-6.958h-57.752l-.975 6.958a14.339 14.339 0 0 1-4.98 8.988 10.5 10.5 0 0 0 2.216 17.513c14.272 6.816 31.632 6.052 32.615 6 .983.049 18.343.813 32.615-6a10.5 10.5 0 0 0 2.216-17.513z" opacity="1" data-original="url(#a)"></path><path fill="url(#b)" d="M315.231 121.774v93.869a13.739 13.739 0 0 1-8.978 12.935 81.449 81.449 0 0 1-57.3 0 13.739 13.739 0 0 1-8.978-12.935v-95.7z" opacity="1" data-original="url(#b)" class=""></path><path fill="url(#b)" d="M282.007 75.44c-8.96-1.751-18.849 3.991-18.849 3.991a46.991 46.991 0 0 0-23.186 40.515 3.718 3.718 0 0 0 1.517 3.008c5.54 4.055 16.688 9.632 36.112 9.632 21.4 0 32.752-6.768 37.63-10.812C309.67 95.893 297.6 82.34 282.007 75.44z" opacity="1" data-original="url(#b)" class=""></path><path fill="url(#a)" d="M306.253 228.578a13.739 13.739 0 0 0 8.978-12.935v-95.7c0-33.557-28.977-44.493-33.227-44.493 6.993 4.286 15.5 12.27 15.5 25.757V187.9a27.162 27.162 0 0 1-17.174 25.3c-9.176 3.608-22.374 5.616-40.36 1.533v.906a13.739 13.739 0 0 0 8.978 12.935 81.449 81.449 0 0 0 57.305.004z" opacity="1" data-original="url(#a)"></path><path fill="url(#a)" d="M97.178 240.836a14.334 14.334 0 0 1-4.98-8.988l-.976-6.958H33.47l-.975 6.958a14.334 14.334 0 0 1-4.98 8.988 10.5 10.5 0 0 0 2.217 17.513c14.271 6.816 31.631 6.052 32.614 6 .983.049 18.343.813 32.615-6a10.5 10.5 0 0 0 2.217-17.513z" opacity="1" data-original="url(#a)"></path><path fill="url(#b)" d="M99.928 121.774v93.869a13.739 13.739 0 0 1-8.978 12.935 81.449 81.449 0 0 1-57.3 0 13.739 13.739 0 0 1-8.978-12.935v-95.7z" opacity="1" data-original="url(#b)" class=""></path><path fill="url(#b)" d="M66.7 75.44c-8.96-1.751-18.848 3.991-18.848 3.991a46.99 46.99 0 0 0-23.187 40.515 3.718 3.718 0 0 0 1.517 3.008c5.541 4.055 16.689 9.632 36.112 9.632 21.4 0 32.752-6.768 37.63-10.812C94.367 95.893 82.292 82.34 66.7 75.44z" opacity="1" data-original="url(#b)" class=""></path><path fill="url(#a)" d="M90.95 228.578a13.739 13.739 0 0 0 8.978-12.935v-95.7c0-33.557-28.977-44.493-33.227-44.493 6.993 4.286 15.5 12.27 15.5 25.757V187.9a27.163 27.163 0 0 1-17.171 25.3c-9.177 3.608-22.375 5.616-40.361 1.533v.906a13.739 13.739 0 0 0 8.978 12.935 81.449 81.449 0 0 0 57.303.004z" opacity="1" data-original="url(#a)"></path><g fill="#fff"><ellipse cx="48.17" cy="100.724" rx="9.782" ry="8.207" transform="rotate(-72.42 48.17 100.746)" fill="#ffffff" opacity="1" data-original="#ffffff"></ellipse><ellipse cx="155.835" cy="100.724" rx="9.782" ry="8.207" transform="rotate(-72.42 155.855 100.755)" fill="#ffffff" opacity="1" data-original="#ffffff"></ellipse><ellipse cx="263.473" cy="100.724" rx="9.782" ry="8.207" transform="rotate(-72.42 263.511 100.764)" fill="#ffffff" opacity="1" data-original="#ffffff"></ellipse></g><path fill="#3c3c4f" d="M133.116 238.376a13.4 13.4 0 0 0-4.786 12.232 13.641 13.641 0 0 0 7.684 10.637c14.447 6.9 31.4 6.437 34 6.321.457.02 1.357.052 2.612.052 5.874 0 19.482-.687 31.385-6.373a13.645 13.645 0 0 0 7.685-10.637 14.344 14.344 0 0 0-4.787-12.232 14.671 14.671 0 0 1-4.054-8.327 17.038 17.038 0 0 0 7.951-14.407v-95.7a50.392 50.392 0 0 0-24.771-43.283q-15.974-8.336-32.138 0a50.39 50.39 0 0 0-24.771 43.283v95.7a17.034 17.034 0 0 0 8.039 14.46 11.747 11.747 0 0 1-4.049 8.274zM157.148 82.2q12.816-7.02 25.632 0a43.948 43.948 0 0 1 21.6 37.747v.269c-5.079 3.786-15.606 9.161-34.419 9.161-19.056 0-29.617-5.646-34.217-9.013a.507.507 0 0 1-.2-.417A43.945 43.945 0 0 1 157.148 82.2zm-21.6 133.443v-87.764c6.88 4.014 17.822 7.918 34.42 7.918 16.788 0 27.776-4.066 34.419-7.919v87.764a10.544 10.544 0 0 1-6.864 9.919 78.689 78.689 0 0 1-55.11 0 10.545 10.545 0 0 1-6.869-9.919zm1.7 27.653a17.507 17.507 0 0 0 6.031-10.659 84.267 84.267 0 0 0 53.467-.03 17.511 17.511 0 0 0 6.037 10.689 7.289 7.289 0 0 1-1.537 12.157c-13.6 6.5-30.36 5.729-31.068 5.693q-.162-.007-.324 0c-.708.035-17.471.8-31.069-5.693a7.289 7.289 0 0 1-1.537-12.157zM277.649 267.566c2.6.117 19.551.579 34-6.321a13.709 13.709 0 0 0 2.9-22.869 11.911 11.911 0 0 1-4.054-8.327 17.037 17.037 0 0 0 7.952-14.407v-95.7a50.392 50.392 0 0 0-24.771-43.283q-16.079-8.547-32.139 0a50.392 50.392 0 0 0-24.771 43.283v95.7a17.035 17.035 0 0 0 8.04 14.46 10.669 10.669 0 0 1-4.047 8.274 13.18 13.18 0 0 0-4.787 12.232 13.641 13.641 0 0 0 7.684 10.637c11.9 5.686 25.513 6.373 31.385 6.373 1.25 0 2.151-.032 2.608-.052zM264.785 82.2a26.92 26.92 0 0 1 25.633 0 43.948 43.948 0 0 1 21.6 37.747v.269c-5.079 3.786-15.607 9.161-34.42 9.161-19.055 0-29.616-5.647-34.216-9.012a.51.51 0 0 1-.2-.418A43.946 43.946 0 0 1 264.785 82.2zm-21.6 133.443v-87.764c6.88 4.014 17.822 7.918 34.419 7.918 16.789 0 27.777-4.066 34.42-7.919v87.764a10.545 10.545 0 0 1-6.865 9.919 78.689 78.689 0 0 1-55.11 0 10.545 10.545 0 0 1-6.867-9.919zm3.236 39.81a7.289 7.289 0 0 1-1.537-12.157 17.5 17.5 0 0 0 6.031-10.659 84.27 84.27 0 0 0 53.468-.03 17.511 17.511 0 0 0 6.037 10.689 7.289 7.289 0 0 1-1.537 12.157c-13.6 6.494-30.362 5.727-31.069 5.693h-.324c-.71.035-17.473.801-31.072-5.694zM25.451 238.376a14.2 14.2 0 0 0-4.787 12.232 13.644 13.644 0 0 0 7.684 10.637c11.905 5.686 25.513 6.373 31.386 6.373 1.254 0 2.156-.032 2.612-.052 2.594.117 19.551.579 34-6.321a13.641 13.641 0 0 0 7.684-10.637 13.161 13.161 0 0 0-4.787-12.232c-3.923-2.986-4.054-8.327-4.054-8.327a17.037 17.037 0 0 0 7.952-14.407v-95.7a50.391 50.391 0 0 0-24.774-43.279q-16.133-8.352-32.138 0a50.392 50.392 0 0 0-24.771 43.283v95.7A17.035 17.035 0 0 0 29.5 230.1s.3 4.269-4.049 8.276zM49.482 82.2q12.816-7.019 25.632 0a43.946 43.946 0 0 1 21.6 37.747v.269c-5.075 3.784-15.603 9.16-34.414 9.16-19.055 0-29.617-5.647-34.217-9.012a.51.51 0 0 1-.2-.418A43.946 43.946 0 0 1 49.482 82.2zm-21.6 133.443v-87.764c6.88 4.014 17.823 7.918 34.42 7.918 16.788 0 27.776-4.066 34.419-7.919v87.764a10.545 10.545 0 0 1-6.865 9.919 78.689 78.689 0 0 1-55.11 0 10.545 10.545 0 0 1-6.867-9.919zm1.7 27.653a17.511 17.511 0 0 0 6.031-10.659 84.267 84.267 0 0 0 53.467-.03 17.506 17.506 0 0 0 6.034 10.693 7.289 7.289 0 0 1-1.537 12.157c-13.6 6.494-30.362 5.727-31.069 5.693h-.324c-.707.036-17.47.8-31.069-5.693a7.288 7.288 0 0 1-1.536-12.157z" opacity="1" data-original="#3c3c4f" class=""></path></g></svg>