<svg xmlns="http://www.w3.org/2000/svg" version="1.1" xmlns:xlink="http://www.w3.org/1999/xlink" width="512" height="512" x="0" y="0" viewBox="0 0 340 340" style="enable-background:new 0 0 512 512" xml:space="preserve" class=""><g><path fill="#ffde76" d="M97.752 82.462H77.019a41.17 41.17 0 0 0-21.43 5.822 40.016 40.016 0 0 0-15.982 18.495 49 49 0 0 0 1.986 43.211 45.914 45.914 0 0 0 20.278 19.564 9.873 9.873 0 0 0-.994.286c-14.1 4.728-8.075 25.876 6.452 22.714a27.525 27.525 0 0 0 4.992-1.63 15.542 15.542 0 0 0 3.254-2.2 18.46 18.46 0 0 0 5.15-20.227 27.683 27.683 0 0 0-11.9-14.38 31.963 31.963 0 0 1-9.114-8.548 38.606 38.606 0 0 1-3.575-6.123 28.766 28.766 0 0 1-1.078-22.53 24.077 24.077 0 0 1 8.165-10.839 23.377 23.377 0 0 1 13.877-4.383h20.652z" opacity="1" data-original="#ffde76"></path><path fill="#ffde76" d="M191.837 222.109c18.141-11.977 50.411-38.916 50.411-78.994V82.462H97.752v60.653c0 40.078 32.27 67.017 50.411 78.994a26.66 26.66 0 0 1 12.026 22.231v23.648c0 17.566-21.547 24.758-31.359 27.122a19.22 19.22 0 0 0-14.457 14.974c-.087.457-.12.718-.12.718h111.494s-.033-.261-.12-.718a19.22 19.22 0 0 0-14.457-14.974c-9.812-2.364-31.359-9.556-31.359-27.122V244.34a26.66 26.66 0 0 1 12.026-22.231z" opacity="1" data-original="#ffde76"></path><path fill="#ffde76" d="M191.837 222.109c18.141-11.977 50.411-38.916 50.411-78.994V82.462H97.752v60.653c0 40.078 32.27 67.017 50.411 78.994a26.66 26.66 0 0 1 12.026 22.231v23.648c0 17.566-21.547 24.758-31.359 27.122a19.22 19.22 0 0 0-14.457 14.974c-.087.457-.12.718-.12.718h111.494s-.033-.261-.12-.718a19.22 19.22 0 0 0-14.457-14.974c-9.812-2.364-31.359-9.556-31.359-27.122V244.34a26.66 26.66 0 0 1 12.026-22.231z" opacity="1" data-original="#ffde76"></path><path fill="#ffde76" d="M242.248 82.462h20.733a41.17 41.17 0 0 1 21.43 5.822 40.016 40.016 0 0 1 15.982 18.495 49 49 0 0 1-1.986 43.211 45.914 45.914 0 0 1-20.278 19.564 9.873 9.873 0 0 1 .994.286c14.1 4.728 8.075 25.876-6.452 22.714a27.525 27.525 0 0 1-4.992-1.63 15.542 15.542 0 0 1-3.254-2.2 18.46 18.46 0 0 1-5.15-20.227 27.683 27.683 0 0 1 11.9-14.38 31.963 31.963 0 0 0 9.114-8.548 38.606 38.606 0 0 0 3.575-6.123 28.766 28.766 0 0 0 1.078-22.53 24.077 24.077 0 0 0-8.165-10.839 23.377 23.377 0 0 0-13.877-4.385h-20.652z" opacity="1" data-original="#ffde76"></path><path fill="#efac52" d="M232.872 310.8H107.128a9.376 9.376 0 0 0 0 18.752h125.744a9.376 9.376 0 0 0 0-18.752z" opacity="1" data-original="#efac52"></path><path fill="#ffde76" d="m38.508 10.446 6.107 18.727a16.848 16.848 0 0 0 9.444 10.29l12.958 5.491-12.958 5.491a16.848 16.848 0 0 0-9.444 10.29l-6.107 18.727L32.4 60.735a16.848 16.848 0 0 0-9.444-10.29L10 44.954l12.958-5.491a16.848 16.848 0 0 0 9.442-10.29zM301.492 224.464l6.106 18.728a16.85 16.85 0 0 0 9.444 10.29L330 258.973l-12.958 5.491a16.849 16.849 0 0 0-9.444 10.289l-6.106 18.728-6.107-18.728a16.849 16.849 0 0 0-9.444-10.289l-12.958-5.491 12.958-5.491a16.85 16.85 0 0 0 9.444-10.29z" opacity="1" data-original="#ffde76"></path><path fill="#fff7e1" d="M109.8 102.408v19.225a6.14 6.14 0 0 0 10.71 4.1l21.55-24.012a4.938 4.938 0 0 0-3.675-8.236h-19.669a8.921 8.921 0 0 0-8.916 8.923z" opacity="1" data-original="#fff7e1"></path><path fill="#ffffff" d="m170 106.623 10.58 21.663 23.873 3.368-17.334 16.757 4.174 23.745L170 160.849l-21.293 11.307 4.174-23.745-17.334-16.757 23.873-3.368z" opacity="1" data-original="#ffffff"></path><path fill="#efac52" d="M170 216.9c-29.824 0-43.129-11.9-44.554-13.265a145.462 145.462 0 0 0 22.717 18.474 26.738 26.738 0 0 1 11.4 16.581c.1.439.18.88.255 1.324l.028.173q.1.594.166 1.194c.019.175.033.352.05.528.029.3.058.605.077.909.029.5.048 1.012.048 1.522v10l19.623 11.253V244.34c0-.54.018-1.077.05-1.612.028-.442.072-.882.122-1.32.009-.081.013-.163.023-.244a26.708 26.708 0 0 1 11.83-19.055 145.434 145.434 0 0 0 22.719-18.476C213.139 204.988 199.836 216.9 170 216.9z" opacity="1" data-original="#efac52"></path><g fill="#494151"><path d="M301.911 151.919a53.167 53.167 0 0 0 2.144-46.75 43.921 43.921 0 0 0-17.564-20.3 45.138 45.138 0 0 0-23.51-6.4H77.019a45.129 45.129 0 0 0-23.51 6.405 43.914 43.914 0 0 0-17.564 20.3 53.165 53.165 0 0 0 2.144 46.749 50.354 50.354 0 0 0 15.644 17.52 16 16 0 0 0 10.714 27.438 17.548 17.548 0 0 0 3.732-.413 31.921 31.921 0 0 0 5.8-1.9 19.481 19.481 0 0 0 4.191-2.795 22.572 22.572 0 0 0 6.326-24.6 31.928 31.928 0 0 0-13.553-16.444 27.781 27.781 0 0 1-7.973-7.475 34.6 34.6 0 0 1-3.2-5.488 24.889 24.889 0 0 1-.979-19.392A20.041 20.041 0 0 1 65.6 109.3a19.5 19.5 0 0 1 11.5-3.6h16.652v37.42c0 41.645 32.709 69.459 52.206 82.332a22.616 22.616 0 0 1 10.23 18.893v23.649c0 14.815-19.787 21.183-28.295 23.233a23.316 23.316 0 0 0-16.8 15.58h-3.97a13.376 13.376 0 0 0 0 26.752h125.749a13.376 13.376 0 0 0 0-26.752H228.9a23.316 23.316 0 0 0-16.795-15.58c-8.508-2.05-28.295-8.418-28.295-23.233V244.34a22.616 22.616 0 0 1 10.23-18.893c19.5-12.873 52.206-40.687 52.206-82.332V105.7H262.9a19.5 19.5 0 0 1 11.5 3.6 20.041 20.041 0 0 1 6.807 9.069 24.889 24.889 0 0 1-.979 19.392 34.6 34.6 0 0 1-3.2 5.488 27.781 27.781 0 0 1-7.973 7.475 31.928 31.928 0 0 0-13.555 16.445 22.572 22.572 0 0 0 6.326 24.6 19.355 19.355 0 0 0 4.274 2.831 31.754 31.754 0 0 0 5.717 1.862 17.557 17.557 0 0 0 3.733.413 16 16 0 0 0 10.714-27.439 50.347 50.347 0 0 0 15.647-17.517zM93.752 97.7H77.1a27.174 27.174 0 0 0-16.246 5.161 27.92 27.92 0 0 0-9.523 12.61 32.926 32.926 0 0 0 1.178 25.667 42.57 42.57 0 0 0 3.945 6.76 35.719 35.719 0 0 0 10.254 9.621 23.7 23.7 0 0 1 10.245 12.311 14.529 14.529 0 0 1-3.974 15.853 12.63 12.63 0 0 1-2.315 1.6 23.629 23.629 0 0 1-4.185 1.362c-5.38 1.171-8.361-2.314-9.282-5.655-.9-3.25-.136-7.65 4.953-9.357.3-.1.514-.157.546-.164a4 4 0 0 0 .925-7.511 41.78 41.78 0 0 1-18.523-17.9 45.117 45.117 0 0 1-1.829-39.672 36.056 36.056 0 0 1 14.4-16.686 37.143 37.143 0 0 1 19.35-5.238h16.733zm144.5 4v41.42c0 37.9-30.458 63.668-48.615 75.656a30.6 30.6 0 0 0-13.821 25.569v23.649c0 20.5 24.071 28.517 34.421 31.01a15.4 15.4 0 0 1 10.057 7.8h-16.145a4 4 0 0 0 0 8h28.723a5.376 5.376 0 0 1 0 10.752H107.128a5.376 5.376 0 0 1 0-10.752h44.989a4 4 0 0 0 0-8H119.71a15.4 15.4 0 0 1 10.057-7.8c10.35-2.493 34.421-10.508 34.421-31.01V244.34a30.6 30.6 0 0 0-13.821-25.569c-18.157-11.988-48.615-37.756-48.615-75.656V86.463h136.5zm38.131 64.263a4.008 4.008 0 0 0 .891 7.5c.066.015.275.07.581.172 5.088 1.707 5.848 6.107 4.952 9.357-.921 3.341-3.9 6.828-9.282 5.655a23.629 23.629 0 0 1-4.185-1.362 12.63 12.63 0 0 1-2.315-1.6 14.529 14.529 0 0 1-3.974-15.853 23.707 23.707 0 0 1 10.242-12.317 35.7 35.7 0 0 0 10.254-9.62 42.57 42.57 0 0 0 3.945-6.76 32.926 32.926 0 0 0 1.178-25.667 27.92 27.92 0 0 0-9.523-12.61A27.174 27.174 0 0 0 262.9 97.7h-16.652V86.463h16.733a37.143 37.143 0 0 1 19.35 5.238 36.056 36.056 0 0 1 14.4 16.688 45.119 45.119 0 0 1-1.829 39.673 41.783 41.783 0 0 1-18.523 17.896z" fill="#494151" opacity="1" data-original="#494151" class=""></path><path d="M172.163 310.8a4 4 0 0 0 4 4h2.97a4 4 0 1 0 0-8h-2.97a4 4 0 0 0-4 4zM148.574 149.81l-3.806 21.654a4 4 0 0 0 5.815 4.225L170 165.378l19.417 10.311a4 4 0 0 0 5.816-4.225l-3.807-21.654 15.807-15.28a4 4 0 0 0-2.221-6.837l-21.77-3.071-9.648-19.755a4 4 0 0 0-7.188 0l-9.648 19.755-21.77 3.071a4 4 0 0 0-2.221 6.837zm11.405-17.563a4 4 0 0 0 3.035-2.205l6.986-14.3 6.986 14.3a4 4 0 0 0 3.035 2.205l15.763 2.224-11.445 11.064a4 4 0 0 0-1.159 3.568l2.756 15.679-14.06-7.466a4 4 0 0 0-3.752 0l-14.06 7.466 2.756-15.682a4 4 0 0 0-1.159-3.568l-11.445-11.064zM28.6 61.974 34.706 80.7a4 4 0 0 0 7.6 0l6.106-18.728a12.848 12.848 0 0 1 7.2-7.847l12.957-5.491a4 4 0 0 0 0-7.366L55.62 35.78a12.849 12.849 0 0 1-7.2-7.846L42.311 9.206a4 4 0 0 0-7.6 0L28.6 27.933a12.844 12.844 0 0 1-7.2 7.847L8.439 41.271a4 4 0 0 0 0 7.366L21.4 54.128a12.845 12.845 0 0 1 7.2 7.846zm-4.08-18.828a20.841 20.841 0 0 0 11.685-12.733l2.3-7.064 2.3 7.065A20.838 20.838 0 0 0 52.5 43.146l4.266 1.808-4.266 1.808A20.844 20.844 0 0 0 40.812 59.5l-2.3 7.064-2.3-7.065a20.845 20.845 0 0 0-11.693-12.737l-4.268-1.808zM318.6 268.147l12.958-5.491a4 4 0 0 0 0-7.366L318.6 249.8a12.846 12.846 0 0 1-7.2-7.847l-6.107-18.728a4 4 0 0 0-7.6 0l-6.106 18.728a12.848 12.848 0 0 1-7.2 7.847l-12.957 5.491a4 4 0 0 0 0 7.366l12.957 5.491a12.849 12.849 0 0 1 7.2 7.846l6.106 18.728a4 4 0 0 0 7.6 0l6.107-18.728a12.845 12.845 0 0 1 7.2-7.847zm-14.8 5.366-2.3 7.065-2.3-7.065a20.838 20.838 0 0 0-11.7-12.732l-4.266-1.808 4.267-1.808a20.844 20.844 0 0 0 11.686-12.733l2.3-7.065 2.3 7.065a20.844 20.844 0 0 0 11.686 12.733l4.268 1.808-4.268 1.808a20.84 20.84 0 0 0-11.673 12.732z" fill="#494151" opacity="1" data-original="#494151" class=""></path></g></g></svg>