<svg xmlns="http://www.w3.org/2000/svg" version="1.1" xmlns:xlink="http://www.w3.org/1999/xlink" width="512" height="512" x="0" y="0" viewBox="0 0 64 64" style="enable-background:new 0 0 512 512" xml:space="preserve" class=""><g><path d="M58.532 55.027 42.948 33.384a8.138 8.138 0 0 0-12.857-.456l-6.73 8.077-3.617-10.335L28.417 22a5.4 5.4 0 0 0-2.117-8.952L18 10.28V10a8 8 0 0 0-16 0v4a7.987 7.987 0 0 0 3.329 6.481 10.27 10.27 0 0 0-2.044 2.433A16.039 16.039 0 0 0 1 31.165v.12a16.086 16.086 0 0 0 1.842 7.461l6 11.4a72.649 72.649 0 0 0 5.178 8.4 8.234 8.234 0 0 0 13.916-.819l8.275-15.045L50 57.4V61a1 1 0 0 0 1 1h11a1 1 0 0 0 1-1v-1a5 5 0 0 0-4.468-4.972ZM28 18.175a3.384 3.384 0 0 1-1 2.408l-9.524 9.523A6.422 6.422 0 0 1 12.908 32a2.908 2.908 0 0 1-1.608-5.328l10.26-6.84a1 1 0 0 0-.161-1.751L8.854 12.707A1.411 1.411 0 0 1 9.41 10a8.794 8.794 0 0 1 2.781.451l13.48 4.494A3.4 3.4 0 0 1 28 18.175Zm-21.046.985 2.827-3.535a.991.991 0 0 0 .154-.279l4.949 2.121A6.029 6.029 0 0 1 10 20a5.952 5.952 0 0 1-3.046-.84Zm9.8-.892 2.156.924-3.485 2.324q-.378-.526-.78-1.033a7.982 7.982 0 0 0 2.108-2.215ZM4 14v-4a6 6 0 0 1 11.98-.393l-3.156-1.052A10.77 10.77 0 0 0 9.41 8 3.407 3.407 0 0 0 8 14.51v.139l-2.577 3.222A5.97 5.97 0 0 1 4 14Zm.611 23.814A14.087 14.087 0 0 1 3 31.285v-.12a14.035 14.035 0 0 1 2-7.222 8.249 8.249 0 0 1 1.925-2.2l.306-.244a7.75 7.75 0 0 0 5.622-.048q.471.575.907 1.177l-3.574 2.383A4.908 4.908 0 0 0 12.908 34a8.4 8.4 0 0 0 5.243-1.826l3.759 10.739a27.9 27.9 0 0 1-9.071 10.216 70.69 70.69 0 0 1-2.226-3.911Zm32.118 2.5a1 1 0 0 0-1.6.2L26.186 56.77a6.236 6.236 0 0 1-10.537.62c-.6-.841-1.176-1.7-1.741-2.571a29.888 29.888 0 0 0 9.921-11.25l7.8-9.36a6.138 6.138 0 0 1 9.7.343l14.9 20.691-4.85.693ZM52 60v-2.132L58.044 57A2.993 2.993 0 0 1 61 60Z" data-name="Layer 24" fill="#000000" opacity="1" data-original="#000000" class=""></path></g></svg>