<svg xmlns="http://www.w3.org/2000/svg" version="1.1" xmlns:xlink="http://www.w3.org/1999/xlink" width="512" height="512" x="0" y="0" viewBox="0 0 64 64" style="enable-background:new 0 0 512 512" xml:space="preserve" class=""><g><path d="M50 37a12.93 12.93 0 0 0-4.182.703L42.517 30h2.186l2.867 1.448c.419.191.853.33 1.297.422a1.31 1.31 0 0 1-.773.711l-1.411.47.633 1.897 1.411-.47a3.32 3.32 0 0 0 2.229-2.618A2.875 2.875 0 0 0 53 29.117a2.882 2.882 0 0 0-1.502-2.531l-9.893-5.396L38.414 18l.293-.293A.999.999 0 0 0 38.6 16.2l-.434-.325.147-.11c.444.139.906.235 1.395.235a4.68 4.68 0 0 0 4.211-2.603l1.975-3.95A.99.99 0 0 0 46 9V7c0-2.775-2.071-5.164-4.818-5.556l-2.171-.311A13.583 13.583 0 0 0 37.121 1 3.124 3.124 0 0 0 34 4.121c0 .834.325 1.618.914 2.207l.942.942-.396 1.188a8.607 8.607 0 0 0-.17.589 38.581 38.581 0 0 0-12.182 2.532l-3.863 1.486a11.31 11.31 0 0 0-4.768 3.489A11.335 11.335 0 0 0 12 23.614c0 1.19.578 2.314 1.547 3.006a55.863 55.863 0 0 0 6.426 3.954l.96 2.347-2.324 4.939A12.91 12.91 0 0 0 14 37C6.832 37 1 42.832 1 50s5.832 13 13 13 13-5.832 13-13c0-1.166-.169-2.291-.458-3.366L27 47.753V51c0 1.654 1.346 3 3 3h5.315c.828 0 1.561-.385 2.054-.977C38.738 58.736 43.874 63 50 63c7.168 0 13-5.832 13-13s-5.832-13-13-13zM37.037 49.264a2.687 2.687 0 0 0-1.07-.553l-1.922-.48.149-2.676 9.128-8.599.658 1.534a13 13 0 0 0-6.943 10.774zM34.835 34h7.22l.427.997-8.128 7.657zm5.246-4.606L41.198 32h-6.252l.052-.944a.997.997 0 0 0-.292-.763l-7.074-7.074 3.522-2.013 1.042 1.389a1 1 0 0 0 1.511.113l.293-.294 4.293 4.293c.075.075.162.138.256.186l2.244 1.133a.996.996 0 0 0-.712 1.368zm-3.603-12.286-3.369 3.369-.225-.299-1.486-1.982A2.002 2.002 0 0 1 34.2 15.4zm3.815 5.599a1 1 0 0 0 .228.171l10.019 5.464A.882.882 0 0 1 50.117 30a4.1 4.1 0 0 1-1.684-.355l-8.84-4.465L35.414 21 37 19.414zm1.837-10.204A2.692 2.692 0 0 1 39.708 14 2.711 2.711 0 0 1 37 11.292c0-.75.12-1.491.357-2.202l.298-.896 5.892 1.473zM37.121 3c.536 0 1.077.039 1.607.114l2.17.31A3.63 3.63 0 0 1 44 7v.719l-6.489-1.622-1.183-1.183A1.122 1.122 0 0 1 37.121 3zM19.962 14.932l3.863-1.486a36.614 36.614 0 0 1 11.184-2.385c-.002.077-.009.154-.009.231 0 1.195.462 2.275 1.198 3.107L35.4 13.8A4.022 4.022 0 0 0 33 13c-2.206 0-4 1.794-4 4 0 .873.276 1.702.798 2.397l.147.197-4.042 2.31-10.2-3.643c.109-.155.217-.31.335-.458a9.313 9.313 0 0 1 3.924-2.871zM14 23.614c0-1.233.255-2.45.725-3.579l10.727 3.831 7.524 7.525L32.054 48H29V33c0-.417-.259-.79-.649-.937l-1.244-.466a53.911 53.911 0 0 1-12.398-6.605A1.696 1.696 0 0 1 14 23.614zM22.874 32h-.157l-.039-.096c.066.03.129.066.196.096zM14 61C7.935 61 3 56.065 3 50s4.935-11 11-11c1.32 0 2.581.246 3.754.674l-.427.907A9.942 9.942 0 0 0 14 40C8.486 40 4 44.486 4 50s4.486 10 10 10 10-4.486 10-10c0-3.635-1.956-6.814-4.864-8.565l.428-.909C22.81 42.441 25 45.966 25 50c0 6.065-4.935 11-11 11zm.905-10.574 3.376-7.173C20.512 44.674 22 47.164 22 50c0 4.411-3.589 8-8 8s-8-3.589-8-8 3.589-8 8-8c.863 0 1.694.142 2.473.396l-3.378 7.178zm5.514-11.717 1.542-3.276 3.339 8.163a13.09 13.09 0 0 0-4.881-4.887zM23.535 34H27v8.47zm11.78 18H30c-.551 0-1-.449-1-1v-1h3.876l2.605.651A.683.683 0 0 1 35.315 52zM50 61c-6.065 0-11-4.935-11-11 0-4.172 2.335-7.809 5.767-9.673l.397.927C42.088 42.961 40 46.24 40 50c0 5.514 4.486 10 10 10s10-4.486 10-10-4.486-10-10-10a9.954 9.954 0 0 0-3 .461l-.394-.919A10.95 10.95 0 0 1 50 39c6.065 0 11 4.935 11 11s-4.935 11-11 11zm-2.205-18.684A7.945 7.945 0 0 1 50 42c4.411 0 8 3.589 8 8s-3.589 8-8 8-8-3.589-8-8c0-2.936 1.594-5.5 3.958-6.892l3.123 7.286 1.838-.788z" fill="#000000" opacity="1" data-original="#000000" class=""></path></g></svg>