<svg xmlns="http://www.w3.org/2000/svg" version="1.1" xmlns:xlink="http://www.w3.org/1999/xlink" width="512" height="512" x="0" y="0" viewBox="0 0 512 512" style="enable-background:new 0 0 512 512" xml:space="preserve" class=""><g><path d="m164.328 112.834 15.993-7.996 7.152 14.304-15.993 7.996zM216 424h-80v-64h-16v80h8v56h16v-56h64v56h16v-56h8v-80h-16zM448 305.578l-19.97 29.954a23.925 23.925 0 0 0-4.03 13.312V352a24 24 0 0 0 48 0v-3.156a23.924 23.924 0 0 0-4.03-13.312zM456 352a8 8 0 0 1-16 0v-3.156a7.979 7.979 0 0 1 1.343-4.437l6.657-9.985 6.656 9.984a7.978 7.978 0 0 1 1.344 4.438zM376 409.578l-19.97 29.954a23.925 23.925 0 0 0-4.03 13.312V456a24 24 0 0 0 48 0v-3.156a23.924 23.924 0 0 0-4.03-13.312zM384 456a8 8 0 0 1-16 0v-3.156a7.979 7.979 0 0 1 1.343-4.437l6.657-9.985 6.656 9.984a7.978 7.978 0 0 1 1.344 4.438zM456 216v-3.156a23.924 23.924 0 0 0-4.03-13.312L432 169.578l-19.97 29.954a23.925 23.925 0 0 0-4.03 13.312V216a24 24 0 0 0 48 0zm-32 0v-3.156a7.979 7.979 0 0 1 1.343-4.437l6.657-9.985 6.656 9.984a7.978 7.978 0 0 1 1.344 4.438V216a8 8 0 0 1-16 0z" fill="#000000" opacity="1" data-original="#000000" class=""></path><path d="m377.336 164.98 83.266-32.025a23.96 23.96 0 0 0 14.152-29.99L460.65 60.65a24 24 0 0 0-30.357-15.179L261.06 101.88a24.113 24.113 0 0 0-15.18 15.18l-2.316 6.95-28.606-17.165-13.611-54.443A56.067 56.067 0 0 0 208 25.815V13.978L99.001 38.75a88 88 0 0 0-66.61 103.94l1.6 7.603a128.453 128.453 0 0 0 84.778 95.062l6.317 2.106 1.891 6.303A166.843 166.843 0 0 0 80 370.274V496h16V370.274a150.928 150.928 0 0 1 41.265-104.126l92.623 56.603A88.54 88.54 0 0 1 272 397.841V496h16v-98.16a102.35 102.35 0 0 0-1.207-15.581l81.28-25.4a56 56 0 0 0 37.904-65.861zm-31.002-74.659 2.442 9.77a7.996 7.996 0 0 1-4.952 9.43l-33.842 12.692a8 8 0 0 1-10.57-5.55l-2.47-9.878zM256 149.766v-12.468l5.06-15.179a8.039 8.039 0 0 1 5.06-5.06l15.599-5.2 2.17 8.683a24.008 24.008 0 0 0 31.711 16.652l33.842-12.69A23.99 23.99 0 0 0 364.3 96.21l-2.741-10.963 73.793-24.598a8.009 8.009 0 0 1 10.12 5.06l14.105 42.316a7.987 7.987 0 0 1-4.718 9.996l-89.566 34.45-16.258 5.419a24 24 0 0 0-33.112-12.795l-4.413 2.206a23.996 23.996 0 0 0-12.734 26.495l.964 4.498-20.91 4.182a7.989 7.989 0 0 1-7.227-2.187l-13.441-13.442-19.72 6.574-4.645-16.254zm-136.57 78.84a112.423 112.423 0 0 1-69.781-81.608l-1.6-7.603a72 72 0 0 1 54.498-85.042l88.578-20.132a39.792 39.792 0 0 1-30.13 30.57l-28.948 6.68a47.77 47.77 0 0 0-36.275 56.185l1.67 8.344h10.916a15.96 15.96 0 0 1 5.047 31.1l-11.298 3.765zm74.105-3.441 11.581 63.698-62.333-38.093-20.949-69.831a31.96 31.96 0 0 0-10.95-60.839 31.826 31.826 0 0 1 24.761-33.039l28.947-6.68a56.073 56.073 0 0 0 24.19-12.27l12.26 49.044 36.498 21.899-23.336 7.778 13.337 46.684a8 8 0 0 1-6.123 10.042l-15.278 3.056a16.075 16.075 0 0 0-12.605 18.551zm15.742-2.862 15.279-3.056a24 24 0 0 0 18.37-30.127l-.086-.3 11-3.667 6.449 6.449a23.967 23.967 0 0 0 21.676 6.563l21.126-4.225 13.734 64.091a8.01 8.01 0 0 1-6.146 9.5l-89.684 19.217zM283.13 366.64a104.61 104.61 0 0 0-44.9-57.54l-11.729-7.169 81.518-17.468 24.294 66.808zm80.17-25.053-15.699 4.906-24.5-67.374a23.96 23.96 0 0 0 9.369-24.44l-18.05-84.235a7.999 7.999 0 0 1 4.244-8.832l4.413-2.206a8 8 0 0 1 11.168 4.625 14.868 14.868 0 0 0 18.783 9.392l9.127-3.042 28.219 124.162a40.206 40.206 0 0 1-27.074 47.044z" fill="#000000" opacity="1" data-original="#000000" class=""></path></g></svg>