<svg xmlns="http://www.w3.org/2000/svg" version="1.1" xmlns:xlink="http://www.w3.org/1999/xlink" width="512" height="512" x="0" y="0" viewBox="0 0 64 64" style="enable-background:new 0 0 512 512" xml:space="preserve" class=""><g><path d="M45 22H33a1 1 0 0 0-1-1h-.014A4.581 4.581 0 0 0 30 17.431v-1.116A7 7 0 0 0 34 10V8a7 7 0 0 0-14 0v2a6.994 6.994 0 0 0 3.3 5.932l-.037.111a6.257 6.257 0 0 0-5.281 4.557 1.136 1.136 0 0 0-.024.116l-1.847 12.457A10.318 10.318 0 0 0 26.313 45H31v17a1 1 0 0 0 1 1h9a1 1 0 0 0 1-1v-1a4.008 4.008 0 0 0-3-3.874V44a8.014 8.014 0 0 0-7-7.938V29a1 1 0 0 0 1-1h12a3 3 0 0 0 0-6Zm-14 1v4h-3a2 2 0 0 1 0-4Zm-3-5.439a1.893 1.893 0 0 1-2.909-.615l-.012-.023.061-.182a6.619 6.619 0 0 0 2.86.179ZM27 15a4.941 4.941 0 0 1-1.75-.333L26.8 12.6a1 1 0 0 0 .2-.6V9h5v1a5.006 5.006 0 0 1-5 5Zm-5-5V8a5 5 0 0 1 9.9-1H26a1 1 0 0 0-1 1v3.667L23.548 13.6A4.977 4.977 0 0 1 22 10Zm18 51h-7v-2h5a2 2 0 0 1 2 2Zm-3-17v13h-4V44a1 1 0 0 0-1-1h-5.687a8.323 8.323 0 0 1-7.62-5H31a6.006 6.006 0 0 1 6 6Zm-7-8H18.114A8.367 8.367 0 0 1 18 34.687a8.246 8.246 0 0 1 .09-1.22l1.837-12.4a4.244 4.244 0 0 1 3.5-3.02 3.875 3.875 0 0 0 5.651 1.205A2.573 2.573 0 0 1 29.967 21H28a4 4 0 0 0 0 8h2Zm15-10H33v-2h12a1 1 0 0 1 0 2Z" data-name="Layer 24" fill="#000000" opacity="1" data-original="#000000" class=""></path></g></svg>