<svg xmlns="http://www.w3.org/2000/svg" version="1.1" xmlns:xlink="http://www.w3.org/1999/xlink" width="512" height="512" x="0" y="0" viewBox="0 0 682.667 682.667" style="enable-background:new 0 0 512 512" xml:space="preserve" class=""><g><defs><clipPath id="a" clipPathUnits="userSpaceOnUse"><path d="M0 512h512V0H0Z" fill="#000000" opacity="1" data-original="#000000"></path></clipPath></defs><g clip-path="url(#a)" transform="matrix(1.33333 0 0 -1.33333 0 682.667)"><path d="M0 0c-21.215-.875-49.299-3.903-75.648-12.611" style="stroke-width:15;stroke-linecap:round;stroke-linejoin:round;stroke-miterlimit:10;stroke-dasharray:none;stroke-opacity:1" transform="translate(379.848 178.052)" fill="none" stroke="#000000" stroke-width="15" stroke-linecap="round" stroke-linejoin="round" stroke-miterlimit="10" stroke-dasharray="none" stroke-opacity="" data-original="#000000" class=""></path><path d="M0 0v-9.385c0-4.97 3.145-9.395 7.838-11.029l12.611-4.391c4.407-1.535 9.011 1.742 9.004 6.409l-.028 23.858c-.002.383.007.764.025 1.142.707 14.492 18.919 20.502 28.593 9.689 11.629-13 35.514-32.807 68.319-24.88 3.728.9 7.589-.833 9.301-4.265l.004-.007c3.405-6.83 11.356-10.066 18.564-7.556a11.679 11.679 0 0 1 7.837 11.029v44.658c0 8.527-6.839 15.478-15.364 15.617a9.252 9.252 0 0 0-9.102 9.108c-.136 8.681-7.212 15.647-15.894 15.647H51.196c-24.654 0-45.237-17.426-50.105-40.632" style="stroke-width:15;stroke-linecap:round;stroke-linejoin:round;stroke-miterlimit:10;stroke-dasharray:none;stroke-opacity:1" transform="translate(177.432 428.856)" fill="none" stroke="#000000" stroke-width="15" stroke-linecap="round" stroke-linejoin="round" stroke-miterlimit="10" stroke-dasharray="none" stroke-opacity="" data-original="#000000" class=""></path><path d="M0 0a16.85 16.85 0 0 1-6.119-13.021l.011-15.314c.007-9.326 7.571-16.881 16.897-16.877l4.336.002c.438-17.25 7.669-33.824 20.655-45.046 10.455-9.034 25.13-16.896 44.473-17.032 19.342.301 33.952 8.288 44.33 17.412 12.893 11.332 19.985 27.967 20.279 45.22l4.442.018c6.486.028 11.721 5.372 11.694 11.937l-.055 25.32a11.917 11.917 0 0 1-1.758 6.183" style="stroke-width:15;stroke-linecap:round;stroke-linejoin:round;stroke-miterlimit:10;stroke-dasharray:none;stroke-opacity:1" transform="translate(178.549 414.502)" fill="none" stroke="#000000" stroke-width="15" stroke-linecap="round" stroke-linejoin="round" stroke-miterlimit="10" stroke-dasharray="none" stroke-opacity="" data-original="#000000" class=""></path><path d="M0 0v-7.519c0-9.871-5.196-18.706-13.212-23.659" style="stroke-width:15;stroke-linecap:round;stroke-linejoin:round;stroke-miterlimit:10;stroke-dasharray:none;stroke-opacity:1" transform="translate(224.031 317.144)" fill="none" stroke="#000000" stroke-width="15" stroke-linecap="round" stroke-linejoin="round" stroke-miterlimit="10" stroke-dasharray="none" stroke-opacity="" data-original="#000000" class=""></path><path d="M0 0c-9.885 4.38-16.541 14.231-16.541 25.413v4.691" style="stroke-width:15;stroke-linecap:round;stroke-linejoin:round;stroke-miterlimit:10;stroke-dasharray:none;stroke-opacity:1" transform="translate(304.487 284.213)" fill="none" stroke="#000000" stroke-width="15" stroke-linecap="round" stroke-linejoin="round" stroke-miterlimit="10" stroke-dasharray="none" stroke-opacity="" data-original="#000000" class=""></path><path d="M0 0a106.452 106.452 0 0 1-42.337 18.282 2122.93 2122.93 0 0 0-11.484 2.292 27.373 27.373 0 0 0-5.792 1.862C-70.419 13.19-85.434 5.235-105.167 4.928c-20.243.142-35.602 8.37-46.543 17.825-.539.465-1.052.954-1.571 1.436a27.72 27.72 0 0 0-9.121-3.615 2097.249 2097.249 0 0 0-11.485-2.292A106.464 106.464 0 0 1-216.224 0" style="stroke-width:15;stroke-linecap:round;stroke-linejoin:round;stroke-miterlimit:10;stroke-dasharray:none;stroke-opacity:1" transform="translate(364.1 261.777)" fill="none" stroke="#000000" stroke-width="15" stroke-linecap="round" stroke-linejoin="round" stroke-miterlimit="10" stroke-dasharray="none" stroke-opacity="" data-original="#000000" class=""></path><path d="M0 0a125.728 125.728 0 0 1-4.401 2.664v-198.618c.057-.032.117-.063.174-.096a33.286 33.286 0 0 1 33.497 0l.173.098V2.664A126.662 126.662 0 0 1 25.042 0 23.296 23.296 0 0 0 0 0Z" style="stroke-width:15;stroke-linecap:round;stroke-linejoin:round;stroke-miterlimit:10;stroke-dasharray:none;stroke-opacity:1" transform="translate(243.467 208.07)" fill="none" stroke="#000000" stroke-width="15" stroke-linecap="round" stroke-linejoin="round" stroke-miterlimit="10" stroke-dasharray="none" stroke-opacity="" data-original="#000000" class=""></path><path d="M0 0c44.75 25.919 107.773 26.585 130.886 25.833 4.897-.159 8.944 3.775 8.944 8.675v46.593" style="stroke-width:15;stroke-linecap:round;stroke-linejoin:round;stroke-miterlimit:10;stroke-dasharray:none;stroke-opacity:1" transform="translate(272.91 12.12)" fill="none" stroke="#000000" stroke-width="15" stroke-linecap="round" stroke-linejoin="round" stroke-miterlimit="10" stroke-dasharray="none" stroke-opacity="" data-original="#000000" class=""></path><path d="M0 0v10.322c0 6.568-5.235 11.933-11.801 12.086-25.108.583-85.009-1.031-128.029-25.963" style="stroke-width:15;stroke-linecap:round;stroke-linejoin:round;stroke-miterlimit:10;stroke-dasharray:none;stroke-opacity:1" transform="translate(412.74 214.244)" fill="none" stroke="#000000" stroke-width="15" stroke-linecap="round" stroke-linejoin="round" stroke-miterlimit="10" stroke-dasharray="none" stroke-opacity="" data-original="#000000" class=""></path><path d="M0 0v26.928" style="stroke-width:15;stroke-linecap:round;stroke-linejoin:round;stroke-miterlimit:10;stroke-dasharray:none;stroke-opacity:1" transform="translate(412.74 152.17)" fill="none" stroke="#000000" stroke-width="15" stroke-linecap="round" stroke-linejoin="round" stroke-miterlimit="10" stroke-dasharray="none" stroke-opacity="" data-original="#000000" class=""></path><path d="M0 0c-43.021 24.932-102.923 26.546-128.03 25.963-6.566-.153-11.801-5.519-11.801-12.086v-71.932" style="stroke-width:15;stroke-linecap:round;stroke-linejoin:round;stroke-miterlimit:10;stroke-dasharray:none;stroke-opacity:1" transform="translate(239.066 210.69)" fill="none" stroke="#000000" stroke-width="15" stroke-linecap="round" stroke-linejoin="round" stroke-miterlimit="10" stroke-dasharray="none" stroke-opacity="" data-original="#000000" class=""></path><path d="M0 0v-46.594c0-4.9 4.047-8.833 8.945-8.674 23.112.752 86.136.085 130.886-25.834" style="stroke-width:15;stroke-linecap:round;stroke-linejoin:round;stroke-miterlimit:10;stroke-dasharray:none;stroke-opacity:1" transform="translate(99.236 93.221)" fill="none" stroke="#000000" stroke-width="15" stroke-linecap="round" stroke-linejoin="round" stroke-miterlimit="10" stroke-dasharray="none" stroke-opacity="" data-original="#000000" class=""></path><path d="M0 0a9.463 9.463 0 0 1 9.463-9.463h6.213c9.445 0 17.101-7.656 17.101-17.101v-22.275c0-5.9-4.783-10.683-10.684-10.683H.7c-13.593 0-24.613 11.019-24.613 24.611v20.196A22.815 22.815 0 0 0-13.019 4.737L0 12.714" style="stroke-width:15;stroke-linecap:round;stroke-linejoin:round;stroke-miterlimit:10;stroke-dasharray:none;stroke-opacity:1" transform="translate(99.231 152.726)" fill="none" stroke="#000000" stroke-width="15" stroke-linecap="round" stroke-linejoin="round" stroke-miterlimit="10" stroke-dasharray="none" stroke-opacity="" data-original="#000000" class=""></path><path d="M0 0a9.463 9.463 0 0 0-9.463-9.463h-6.213c-9.445 0-17.101-7.656-17.101-17.101v-22.275c0-5.9 4.783-10.683 10.684-10.683H-.7c13.593 0 24.613 11.019 24.613 24.611v20.196A22.815 22.815 0 0 1 13.019 4.737L0 12.714" style="stroke-width:15;stroke-linecap:round;stroke-linejoin:round;stroke-miterlimit:10;stroke-dasharray:none;stroke-opacity:1" transform="translate(412.769 152.726)" fill="none" stroke="#000000" stroke-width="15" stroke-linecap="round" stroke-linejoin="round" stroke-miterlimit="10" stroke-dasharray="none" stroke-opacity="" data-original="#000000" class=""></path><path d="M0 0v14.559c0 6.156-4.908 11.187-11.063 11.33-24.89.578-86.279-1.111-126.832-28.554a16.143 16.143 0 0 0-18.11 0c-40.553 27.443-101.942 29.132-126.832 28.554-6.155-.143-11.063-5.174-11.063-11.33V0" style="stroke-width:15;stroke-linecap:round;stroke-linejoin:round;stroke-miterlimit:10;stroke-dasharray:none;stroke-opacity:1" transform="translate(402.938 236.427)" fill="none" stroke="#000000" stroke-width="15" stroke-linecap="round" stroke-linejoin="round" stroke-miterlimit="10" stroke-dasharray="none" stroke-opacity="" data-original="#000000" class=""></path></g></g></svg>