<svg xmlns="http://www.w3.org/2000/svg" version="1.1" xmlns:xlink="http://www.w3.org/1999/xlink" width="512" height="512" x="0" y="0" viewBox="0 0 64 64" style="enable-background:new 0 0 512 512" xml:space="preserve" class=""><g><path d="M18.648 41c.962 0 1.929-.096 2.873-.285l3.675-.735c.241-.048.456-.184.604-.38L27 38v22c0 1.654 1.346 3 3 3s3-1.346 3-3v-5.184c.314.112.648.184 1 .184 1.654 0 3-1.346 3-3V38l1.2 1.6a.994.994 0 0 0 .604.38l3.675.735c.944.189 1.91.285 2.873.285A2.651 2.651 0 0 0 48 38.352a2.655 2.655 0 0 0-2.123-2.595l-1.269-22.829C44.236 6.239 38.698 1 32 1c-6.699 0-12.237 5.239-12.609 11.928l-1.268 22.828A2.657 2.657 0 0 0 16 38.352 2.651 2.651 0 0 0 18.648 41zm8.552-6.6-.166.221-2.508-2.508.006-.016a4.793 4.793 0 0 1 3.635-3.015C28.642 30.759 30.172 32 32 32s3.358-1.241 3.833-2.919a4.793 4.793 0 0 1 3.635 3.015l.006.016-2.508 2.508-.166-.22a1 1 0 0 0-1.8.6v3.184A2.966 2.966 0 0 0 34 38c-1.654 0-3 1.346-3 3v1h-2v-7a1 1 0 0 0-1.8-.6zM30.764 23a4.592 4.592 0 0 0 3.197-1.281A4.19 4.19 0 0 0 36 22.87V23c0 2.206-1.794 4-4 4s-4-1.794-4-4zM28 21c0-2.206 1.794-4 4-4 2.114 0 3.833 1.654 3.973 3.734a2.214 2.214 0 0 1-.973-.97l-.105-.211c-.339-.678-1.45-.678-1.789 0A2.606 2.606 0 0 1 30.764 21zm5.867 7.699C33.583 29.457 32.856 30 32 30s-1.583-.543-1.867-1.301c.588.193 1.215.301 1.867.301s1.279-.108 1.867-.301zM31 57h-2V44h2v8zm-1 4c-.551 0-1-.449-1-1v-1h2v1c0 .551-.449 1-1 1zm4-8c-.551 0-1-.449-1-1v-1h2v1c0 .551-.449 1-1 1zm1-4h-2v-8c0-.551.449-1 1-1s1 .449 1 1zm10.352-10c-.831 0-1.666-.083-2.48-.246l-3.3-.66-1.393-1.858 2.068-2.068.818 2.182a.998.998 0 0 0 .74.629l3.675.735A.65.65 0 0 1 45.352 39zM32 3c5.638 0 10.299 4.409 10.612 10.039l1.24 22.312-1.11-.222-1.4-3.734c-.827-2.206-2.759-3.788-5.016-4.245A5.984 5.984 0 0 0 38 23v-2c0-3.309-2.691-6-6-6s-6 2.691-6 6v2c0 1.61.64 3.07 1.676 4.149-2.257.457-4.189 2.04-5.016 4.245l-1.4 3.734-1.11.222 1.239-22.311C21.7 7.41 26.362 3 32 3zM18.521 37.715l3.675-.735a1 1 0 0 0 .74-.629l.818-2.182 2.068 2.068-1.393 1.858-3.3.66c-.815.162-1.65.245-2.481.245a.65.65 0 0 1-.127-1.285z" fill="#000000" opacity="1" data-original="#000000" class=""></path><path d="M23 46h2v7h-2zM23 55h2v2h-2zM48 43a23.38 23.38 0 0 1-5.668-.698l-1.089-.272-.485 1.94 1.089.272c2.009.503 4.08.758 6.153.758z" fill="#000000" opacity="1" data-original="#000000" class=""></path></g></svg>