<svg xmlns="http://www.w3.org/2000/svg" version="1.1" xmlns:xlink="http://www.w3.org/1999/xlink" width="512" height="512" x="0" y="0" viewBox="0 0 64 64" style="enable-background:new 0 0 512 512" xml:space="preserve" class=""><g><path d="M13.9 49.005A1 1 0 0 0 13 50v7a1 1 0 0 0 1 1h1a4.006 4.006 0 0 0 3.894-3.084l9.206-.921a1 1 0 0 0 .829-.624l1.433-3.584.142.081a1.001 1.001 0 0 0 1.391-.421l.425-.85.928 1.061A.992.992 0 0 0 34 50c.23 0 .462-.079.65-.241l.578-.495 2.928 2.342 3.904 10.736c.144.395.52.658.94.658h6.999a1 1 0 0 0 1-1v-1a4.008 4.008 0 0 0-3.233-3.927l-2.808-9.36a1.003 1.003 0 0 0-.251-.42l-3.314-3.314.257-.221a.998.998 0 0 0 .108-1.409l-3.072-3.585A3.545 3.545 0 0 0 41 35.449a3.004 3.004 0 0 0-2-2.831v-1.204l5.086-5.086A3.101 3.101 0 0 0 45 24.121C45 22.4 43.6 21 41.879 21c-.834 0-1.618.325-2.207.914l-.937.937a9.018 9.018 0 0 0-4.883-5.954c.374.063.756.103 1.148.103 3.86 0 7-3.14 7-7V8c0-3.86-3.14-7-7-7s-7 3.14-7 7v2a7.004 7.004 0 0 0 3.655 6.147l-.381-.109a.997.997 0 0 0-.59.013c-2.183.728-3.724 2.761-3.833 5.05l-.297 5.19-1.09 2.453A5.35 5.35 0 0 0 25 30.93a5.37 5.37 0 0 0 1.103 3.24L26 36c0 .993.115 1.974.316 2.933l-3.184 5.571a.996.996 0 0 0 .372 1.364l.217.124-.521 2.083zM35 15a4.945 4.945 0 0 1-1.75-.333L34.8 12.6c.129-.173.2-.384.2-.6V9h5v1c0 2.757-2.243 5-5 5zm-5-5V8c0-2.757 2.243-5 5-5a5.01 5.01 0 0 1 4.899 4H34a1 1 0 0 0-1 1v3.667l-1.451 1.935A4.974 4.974 0 0 1 30 10zM15 56v-5.095l2-.2V54c0 1.103-.897 2-2 2zm34 4.999L43.7 61l-.727-2H47c1.103 0 2 .897 2 1.999zm-5.885-12.47L45.656 57h-3.41l-2.306-6.342a1.003 1.003 0 0 0-.315-.439l-2.85-2.28 3.096-2.654zm-9.014-.932-3.056-3.492a12.3 12.3 0 0 1-3.003-7.104h3.283l4.672 1.699 3.593 4.192zM37.449 37a1.54 1.54 0 0 1-.53-.093l-7.692-2.798A3.393 3.393 0 0 1 27 30.93c0-.476.098-.938.292-1.374l1.278-2.875 2.683 1.192-1.171 2.733a1 1 0 0 0 .603 1.343l7.625 2.542c.412.137.69.523.69.958 0 .856-.696 1.551-1.551 1.551zm-4.595-12.865-.814 1.9-2.659-1.181.892-2.007a1.426 1.426 0 0 1 2.727.577c0 .246-.049.485-.146.711zm8.232-.807a1.122 1.122 0 0 1 1.586 1.586L39 28.586v-3.172zm-10.043-5.276.913.261A6.984 6.984 0 0 1 37 25v6.946l-4.653-1.551 2.345-5.472c.204-.476.308-.981.308-1.499A3.428 3.428 0 0 0 31.576 20a3.422 3.422 0 0 0-2.737 1.381l.01-.174a3.643 3.643 0 0 1 2.194-3.155zM27.13 41.538a14.284 14.284 0 0 0 2.41 3.883l1.356 1.55-.318.636-5.214-2.979zm1.479 7.247-1.312 3.28-8.297.83v-2.39l5.1-.51a1 1 0 0 0 .871-.753l.555-2.219z" fill="#000000" opacity="1" data-original="#000000" class=""></path></g></svg>