<svg xmlns="http://www.w3.org/2000/svg" version="1.1" xmlns:xlink="http://www.w3.org/1999/xlink" width="512" height="512" x="0" y="0" viewBox="0 0 682.667 682.667" style="enable-background:new 0 0 512 512" xml:space="preserve" class=""><g><defs><clipPath id="a" clipPathUnits="userSpaceOnUse"><path d="M0 512h512V0H0Z" fill="#000000" opacity="1" data-original="#000000"></path></clipPath></defs><g clip-path="url(#a)" transform="matrix(1.33333 0 0 -1.33333 0 682.667)"><path d="M0 0h88.015c12.5 0 22.761-10.243 22.761-22.756v-.028c0-12.513-10.261-22.756-22.761-22.756H0c-12.5 0-22.733 10.243-22.733 22.756v.028C-22.733-10.243-12.5 0 0 0Z" style="stroke-width:19.994;stroke-linecap:round;stroke-linejoin:round;stroke-miterlimit:10;stroke-dasharray:none;stroke-opacity:1" transform="translate(162.84 502)" fill="none" stroke="#000000" stroke-width="19.994" stroke-linecap="round" stroke-linejoin="round" stroke-miterlimit="10" stroke-dasharray="none" stroke-opacity="" data-original="#000000" class=""></path><path d="M0 0h19.615" style="stroke-width:19.994;stroke-linecap:round;stroke-linejoin:round;stroke-miterlimit:10;stroke-dasharray:none;stroke-opacity:1" transform="translate(52.973 207.395)" fill="none" stroke="#000000" stroke-width="19.994" stroke-linecap="round" stroke-linejoin="round" stroke-miterlimit="10" stroke-dasharray="none" stroke-opacity="" data-original="#000000" class=""></path><path d="M0 0h19.587" style="stroke-width:19.994;stroke-linecap:round;stroke-linejoin:round;stroke-miterlimit:10;stroke-dasharray:none;stroke-opacity:1" transform="translate(341.79 207.395)" fill="none" stroke="#000000" stroke-width="19.994" stroke-linecap="round" stroke-linejoin="round" stroke-miterlimit="10" stroke-dasharray="none" stroke-opacity="" data-original="#000000" class=""></path><path d="M0 0v19.606" style="stroke-width:19.994;stroke-linecap:round;stroke-linejoin:round;stroke-miterlimit:10;stroke-dasharray:none;stroke-opacity:1" transform="translate(207.174 53.043)" fill="none" stroke="#000000" stroke-width="19.994" stroke-linecap="round" stroke-linejoin="round" stroke-miterlimit="10" stroke-dasharray="none" stroke-opacity="" data-original="#000000" class=""></path><path d="M0 0v19.635" style="stroke-width:19.994;stroke-linecap:round;stroke-linejoin:round;stroke-miterlimit:10;stroke-dasharray:none;stroke-opacity:1" transform="translate(207.174 342.114)" fill="none" stroke="#000000" stroke-width="19.994" stroke-linecap="round" stroke-linejoin="round" stroke-miterlimit="10" stroke-dasharray="none" stroke-opacity="" data-original="#000000" class=""></path><path d="m0 0 13.861 13.875" style="stroke-width:19.994;stroke-linecap:round;stroke-linejoin:round;stroke-miterlimit:10;stroke-dasharray:none;stroke-opacity:1" transform="translate(98.127 98.242)" fill="none" stroke="#000000" stroke-width="19.994" stroke-linecap="round" stroke-linejoin="round" stroke-miterlimit="10" stroke-dasharray="none" stroke-opacity="" data-original="#000000" class=""></path><path d="m0 0-13.861 13.875" style="stroke-width:19.994;stroke-linecap:round;stroke-linejoin:round;stroke-miterlimit:10;stroke-dasharray:none;stroke-opacity:1" transform="translate(316.22 98.242)" fill="none" stroke="#000000" stroke-width="19.994" stroke-linecap="round" stroke-linejoin="round" stroke-miterlimit="10" stroke-dasharray="none" stroke-opacity="" data-original="#000000" class=""></path><path d="m0 0-13.861 13.875" style="stroke-width:19.994;stroke-linecap:round;stroke-linejoin:round;stroke-miterlimit:10;stroke-dasharray:none;stroke-opacity:1" transform="translate(111.988 302.647)" fill="none" stroke="#000000" stroke-width="19.994" stroke-linecap="round" stroke-linejoin="round" stroke-miterlimit="10" stroke-dasharray="none" stroke-opacity="" data-original="#000000" class=""></path><path d="M0 0c64.94 0 117.607-52.719 117.607-117.723 0-65.004-52.667-117.722-117.607-117.722s-117.607 52.718-117.607 117.722C-117.607-52.719-64.94 0 0 0Z" style="stroke-width:19.994;stroke-linecap:round;stroke-linejoin:round;stroke-miterlimit:10;stroke-dasharray:none;stroke-opacity:1" transform="translate(384.393 476.89)" fill="none" stroke="#000000" stroke-width="19.994" stroke-linecap="round" stroke-linejoin="round" stroke-miterlimit="10" stroke-dasharray="none" stroke-opacity="" data-original="#000000" class=""></path><path d="M0 0c-35.858-37.141-86.144-60.266-141.844-60.266-108.904 0-197.174 88.384-197.174 197.396 0 108.983 88.27 197.368 197.174 197.368 22.705 0 44.503-3.859 64.799-10.924m129.23-151.176a198.316 198.316 0 0 0 3.146-35.268c0-24.997-4.621-48.888-13.096-70.905" style="stroke-width:19.994;stroke-linecap:round;stroke-linejoin:round;stroke-miterlimit:10;stroke-dasharray:none;stroke-opacity:1" transform="translate(349.018 70.266)" fill="none" stroke="#000000" stroke-width="19.994" stroke-linecap="round" stroke-linejoin="round" stroke-miterlimit="10" stroke-dasharray="none" stroke-opacity="" data-original="#000000" class=""></path><path d="M0 0v-53.824m58.052 0V0" style="stroke-width:19.994;stroke-linecap:round;stroke-linejoin:round;stroke-miterlimit:10;stroke-dasharray:none;stroke-opacity:1" transform="translate(178.148 456.46)" fill="none" stroke="#000000" stroke-width="19.994" stroke-linecap="round" stroke-linejoin="round" stroke-miterlimit="10" stroke-dasharray="none" stroke-opacity="" data-original="#000000" class=""></path><path d="m0 0-26.588 30.587C-46.345 53.286-80.672 23.409-60.887.682l27.354-31.467A197.4 197.4 0 0 0 0 0Z" style="stroke-width:19.994;stroke-linecap:round;stroke-linejoin:round;stroke-miterlimit:10;stroke-dasharray:none;stroke-opacity:1" transform="translate(91.58 367.281)" fill="none" stroke="#000000" stroke-width="19.994" stroke-linecap="round" stroke-linejoin="round" stroke-miterlimit="10" stroke-dasharray="none" stroke-opacity="" data-original="#000000" class=""></path><path d="M0 0a155.705 155.705 0 0 0 4.535-37.312c0-85.262-69.022-154.352-154.202-154.352-85.15 0-154.201 69.09-154.201 154.352 0 85.236 69.051 154.354 154.201 154.354 21.288 0 41.556-4.313 60.009-12.145" style="stroke-width:19.994;stroke-linecap:round;stroke-linejoin:round;stroke-miterlimit:10;stroke-dasharray:none;stroke-opacity:1" transform="translate(356.84 244.707)" fill="none" stroke="#000000" stroke-width="19.994" stroke-linecap="round" stroke-linejoin="round" stroke-miterlimit="10" stroke-dasharray="none" stroke-opacity="" data-original="#000000" class=""></path><path d="M0 0c15.704 0 28.517 12.825 28.517 28.544C28.517 44.235 15.704 57.06 0 57.06c-15.703 0-28.487-12.825-28.487-28.516C-28.487 12.825-15.703 0 0 0Z" style="stroke-width:19.994;stroke-linecap:round;stroke-linejoin:round;stroke-miterlimit:10;stroke-dasharray:none;stroke-opacity:1" transform="translate(207.174 178.852)" fill="none" stroke="#000000" stroke-width="19.994" stroke-linecap="round" stroke-linejoin="round" stroke-miterlimit="10" stroke-dasharray="none" stroke-opacity="" data-original="#000000" class=""></path><path d="M0 0v45.029" style="stroke-width:19.994;stroke-linecap:round;stroke-linejoin:round;stroke-miterlimit:10;stroke-dasharray:none;stroke-opacity:1" transform="translate(207.174 235.911)" fill="none" stroke="#000000" stroke-width="19.994" stroke-linecap="round" stroke-linejoin="round" stroke-miterlimit="10" stroke-dasharray="none" stroke-opacity="" data-original="#000000" class=""></path><path d="M0 0h45.354L-1.672-57.372h47.735" style="stroke-width:19.994;stroke-linecap:round;stroke-linejoin:round;stroke-miterlimit:10;stroke-dasharray:none;stroke-opacity:1" transform="translate(333.738 377.326)" fill="none" stroke="#000000" stroke-width="19.994" stroke-linecap="round" stroke-linejoin="round" stroke-miterlimit="10" stroke-dasharray="none" stroke-opacity="" data-original="#000000" class=""></path><path d="M0 0h36.935L-1.389-46.731h38.891" style="stroke-width:19.994;stroke-linecap:round;stroke-linejoin:round;stroke-miterlimit:10;stroke-dasharray:none;stroke-opacity:1" transform="translate(407.778 402.606)" fill="none" stroke="#000000" stroke-width="19.994" stroke-linecap="round" stroke-linejoin="round" stroke-miterlimit="10" stroke-dasharray="none" stroke-opacity="" data-original="#000000" class=""></path><path d="m0 0 .085.171" style="stroke-width:19.994;stroke-linecap:round;stroke-linejoin:round;stroke-miterlimit:10;stroke-dasharray:none;stroke-opacity:1" transform="translate(372.913 100.398)" fill="none" stroke="#000000" stroke-width="19.994" stroke-linecap="round" stroke-linejoin="round" stroke-miterlimit="10" stroke-dasharray="none" stroke-opacity="" data-original="#000000" class=""></path></g></g></svg>