<svg xmlns="http://www.w3.org/2000/svg" version="1.1" xmlns:xlink="http://www.w3.org/1999/xlink" width="512" height="512" x="0" y="0" viewBox="0 0 64 64" style="enable-background:new 0 0 512 512" xml:space="preserve" class=""><g><path d="M57.44 15a9.034 9.034 0 0 0-5.025 1.521l-1.939 1.293a5.541 5.541 0 0 0-2.463 4.426 11.562 11.562 0 0 0-5.947.35l-10.232 3.411a11.054 11.054 0 0 0-8.434 4.14L3.794 36.379A3.998 3.998 0 0 0 1 40.201c0 .697.183 1.385.528 1.989.019.032.039.063.061.093l4.007 5.49A3 3 0 0 0 8.011 49 2.993 2.993 0 0 0 11 46.011a5.805 5.805 0 0 0-1.103-3.422l34.535-7.969 1.274 10.496A4.302 4.302 0 0 0 50 49h5a1 1 0 0 0 1-1 5.01 5.01 0 0 0-4.052-4.91l-.808-13.726c-.006-.107-.033-.207-.049-.312l.677-1.354A5.515 5.515 0 0 0 53.56 28a9.034 9.034 0 0 0 5.025-1.521l1.939-1.293A5.548 5.548 0 0 0 63 20.56 5.566 5.566 0 0 0 57.44 15zM8.011 47a.993.993 0 0 1-.799-.406l-3.971-5.44a1.996 1.996 0 0 1 1.101-2.838l2.826 4.24.006-.004c.036.054.072.109.119.156l.578.578A3.826 3.826 0 0 1 9 46.011a.99.99 0 0 1-.989.989zm.437-6.13-2.13-3.195 17.985-5.722a1 1 0 0 0 .497-.354 9.037 9.037 0 0 1 6.374-3.551l1.322 7.272zm37.717-8.577a22.862 22.862 0 0 1-.166-2.719c0-.42.164-.816.461-1.113S47.153 28 47.573 28c.832 0 1.522.651 1.571 1.481l.172 2.922-3.097.344zM53.829 47H50a2.313 2.313 0 0 1-2.306-2.105L46.46 34.733l2.973-.331.568 9.657c.032.528.47.941.999.941 1.304 0 2.416.836 2.829 2zm-3.898-20.098a3.553 3.553 0 0 0-4.886.145 3.547 3.547 0 0 0-1.046 2.528c0 .986.061 1.982.18 2.959l.011.087-9.743 2.248-1.308-7.196 9.559-3.186a9.527 9.527 0 0 1 5.315-.204l.339.085a5.578 5.578 0 0 0 1.668 2.355zM53.56 26A3.564 3.564 0 0 1 50 22.44c0-.159.037-.31.058-.466l2.383.953a.996.996 0 0 0 .819-.034l3.215-1.607 1.952 2.893-.951.634A7.03 7.03 0 0 1 53.56 26zm6.475-3.013-2.394-3.547a.999.999 0 0 0-1.276-.335l-3.598 1.799-1.91-.764a3.54 3.54 0 0 1 .728-.662l1.939-1.293A7.044 7.044 0 0 1 57.44 17 3.564 3.564 0 0 1 61 20.56c0 .915-.354 1.775-.965 2.427z" fill="#000000" opacity="1" data-original="#000000"></path></g></svg>